ISO-10303-21;
HEADER;
/* Generated by software containing ST-Developer
 * from STEP Tools, Inc. (www.steptools.com) 
 */

FILE_DESCRIPTION(
/* description */ (''),
/* implementation_level */ '2;1');

FILE_NAME(
/* name */ 'UPRtek MK350S.step',
/* time_stamp */ '2026-10-04T06:29:37-05:00',
/* author */ (''),
/* organization */ (''),
/* preprocessor_version */ 'ST-DEVELOPER v20.2',
/* originating_system */ 'Autodesk Translation Framework v15.15.0.0',
/* authorisation */ '');

FILE_SCHEMA (('AUTOMOTIVE_DESIGN { 1 0 10303 214 3 1 1 }'));
ENDSEC;

DATA;
#10=MECHANICAL_DESIGN_GEOMETRIC_PRESENTATION_REPRESENTATION('',(#13,#14),
#1328);
#11=SHAPE_REPRESENTATION_RELATIONSHIP('SRR','None',#1335,#12);
#12=ADVANCED_BREP_SHAPE_REPRESENTATION('',(#15,#16),#1327);
#13=STYLED_ITEM('',(#1345),#15);
#14=STYLED_ITEM('',(#1346),#16);
#15=MANIFOLD_SOLID_BREP('Body1',#775);
#16=MANIFOLD_SOLID_BREP('Body2',#776);
#17=FACE_BOUND('',#133,.T.);
#18=FACE_BOUND('',#149,.T.);
#19=FACE_BOUND('',#159,.T.);
#20=FACE_BOUND('',#160,.T.);
#21=FACE_BOUND('',#161,.T.);
#22=CYLINDRICAL_SURFACE('',#806,10.);
#23=CYLINDRICAL_SURFACE('',#809,10.);
#24=CYLINDRICAL_SURFACE('',#827,10.);
#25=CYLINDRICAL_SURFACE('',#829,10.);
#26=CYLINDRICAL_SURFACE('',#835,2.);
#27=CYLINDRICAL_SURFACE('',#842,2.);
#28=CYLINDRICAL_SURFACE('',#843,2.);
#29=CYLINDRICAL_SURFACE('',#845,2.);
#30=CYLINDRICAL_SURFACE('',#856,3.);
#31=CYLINDRICAL_SURFACE('',#859,3.5);
#32=CYLINDRICAL_SURFACE('',#862,2.);
#33=CYLINDRICAL_SURFACE('',#866,3.5);
#34=CIRCLE('',#792,10.);
#35=CIRCLE('',#793,6.7);
#36=CIRCLE('',#795,10.);
#37=CIRCLE('',#796,6.7);
#38=CIRCLE('',#800,10.);
#39=CIRCLE('',#801,6.7);
#40=CIRCLE('',#803,10.);
#41=CIRCLE('',#804,6.7);
#42=CIRCLE('',#807,10.);
#43=CIRCLE('',#810,10.);
#44=CIRCLE('',#815,6.7);
#45=CIRCLE('',#817,10.);
#46=CIRCLE('',#818,6.7);
#47=CIRCLE('',#822,6.7);
#48=CIRCLE('',#824,10.);
#49=CIRCLE('',#825,6.7);
#50=CIRCLE('',#831,2.);
#51=CIRCLE('',#832,2.);
#52=CIRCLE('',#833,2.);
#53=CIRCLE('',#834,2.);
#54=CIRCLE('',#836,2.);
#55=CIRCLE('',#838,2.);
#56=CIRCLE('',#839,2.);
#57=CIRCLE('',#840,2.);
#58=CIRCLE('',#848,2.);
#59=CIRCLE('',#849,3.5);
#60=CIRCLE('',#850,3.);
#61=CIRCLE('',#857,3.);
#62=CIRCLE('',#860,3.5);
#63=CIRCLE('',#863,2.);
#64=CIRCLE('',#867,3.5);
#65=CIRCLE('',#868,3.5);
#66=CONICAL_SURFACE('',#791,8.35,0.593411945678072);
#67=CONICAL_SURFACE('',#794,8.35,0.593411945678072);
#68=CONICAL_SURFACE('',#799,8.35,0.593411945678072);
#69=CONICAL_SURFACE('',#802,8.35,0.593411945678072);
#70=CONICAL_SURFACE('',#814,8.35,0.593411945678073);
#71=CONICAL_SURFACE('',#816,8.35,0.593411945678073);
#72=CONICAL_SURFACE('',#821,8.35,0.593411945678073);
#73=CONICAL_SURFACE('',#823,8.35,0.593411945678073);
#74=FACE_OUTER_BOUND('',#123,.T.);
#75=FACE_OUTER_BOUND('',#124,.T.);
#76=FACE_OUTER_BOUND('',#125,.T.);
#77=FACE_OUTER_BOUND('',#126,.T.);
#78=FACE_OUTER_BOUND('',#127,.T.);
#79=FACE_OUTER_BOUND('',#128,.T.);
#80=FACE_OUTER_BOUND('',#129,.T.);
#81=FACE_OUTER_BOUND('',#130,.T.);
#82=FACE_OUTER_BOUND('',#131,.T.);
#83=FACE_OUTER_BOUND('',#132,.T.);
#84=FACE_OUTER_BOUND('',#134,.T.);
#85=FACE_OUTER_BOUND('',#135,.T.);
#86=FACE_OUTER_BOUND('',#136,.T.);
#87=FACE_OUTER_BOUND('',#137,.T.);
#88=FACE_OUTER_BOUND('',#138,.T.);
#89=FACE_OUTER_BOUND('',#139,.T.);
#90=FACE_OUTER_BOUND('',#140,.T.);
#91=FACE_OUTER_BOUND('',#141,.T.);
#92=FACE_OUTER_BOUND('',#142,.T.);
#93=FACE_OUTER_BOUND('',#143,.T.);
#94=FACE_OUTER_BOUND('',#144,.T.);
#95=FACE_OUTER_BOUND('',#145,.T.);
#96=FACE_OUTER_BOUND('',#146,.T.);
#97=FACE_OUTER_BOUND('',#147,.T.);
#98=FACE_OUTER_BOUND('',#148,.T.);
#99=FACE_OUTER_BOUND('',#150,.T.);
#100=FACE_OUTER_BOUND('',#151,.T.);
#101=FACE_OUTER_BOUND('',#152,.T.);
#102=FACE_OUTER_BOUND('',#153,.T.);
#103=FACE_OUTER_BOUND('',#154,.T.);
#104=FACE_OUTER_BOUND('',#155,.T.);
#105=FACE_OUTER_BOUND('',#156,.T.);
#106=FACE_OUTER_BOUND('',#157,.T.);
#107=FACE_OUTER_BOUND('',#158,.T.);
#108=FACE_OUTER_BOUND('',#162,.T.);
#109=FACE_OUTER_BOUND('',#163,.T.);
#110=FACE_OUTER_BOUND('',#164,.T.);
#111=FACE_OUTER_BOUND('',#165,.T.);
#112=FACE_OUTER_BOUND('',#166,.T.);
#113=FACE_OUTER_BOUND('',#167,.T.);
#114=FACE_OUTER_BOUND('',#168,.T.);
#115=FACE_OUTER_BOUND('',#169,.T.);
#116=FACE_OUTER_BOUND('',#170,.T.);
#117=FACE_OUTER_BOUND('',#171,.T.);
#118=FACE_OUTER_BOUND('',#172,.T.);
#119=FACE_OUTER_BOUND('',#173,.T.);
#120=FACE_OUTER_BOUND('',#174,.T.);
#121=FACE_OUTER_BOUND('',#175,.T.);
#122=FACE_OUTER_BOUND('',#176,.T.);
#123=EDGE_LOOP('',(#489,#490,#491,#492));
#124=EDGE_LOOP('',(#493,#494,#495,#496));
#125=EDGE_LOOP('',(#497,#498,#499,#500));
#126=EDGE_LOOP('',(#501,#502,#503,#504));
#127=EDGE_LOOP('',(#505,#506,#507,#508));
#128=EDGE_LOOP('',(#509,#510,#511,#512));
#129=EDGE_LOOP('',(#513,#514,#515,#516));
#130=EDGE_LOOP('',(#517,#518,#519,#520));
#131=EDGE_LOOP('',(#521,#522,#523,#524));
#132=EDGE_LOOP('',(#525,#526,#527,#528));
#133=EDGE_LOOP('',(#529,#530,#531,#532));
#134=EDGE_LOOP('',(#533,#534,#535,#536));
#135=EDGE_LOOP('',(#537,#538,#539,#540));
#136=EDGE_LOOP('',(#541,#542,#543,#544,#545,#546,#547,#548));
#137=EDGE_LOOP('',(#549,#550,#551,#552));
#138=EDGE_LOOP('',(#553,#554,#555,#556));
#139=EDGE_LOOP('',(#557,#558,#559,#560));
#140=EDGE_LOOP('',(#561,#562,#563,#564));
#141=EDGE_LOOP('',(#565,#566,#567,#568));
#142=EDGE_LOOP('',(#569,#570,#571,#572));
#143=EDGE_LOOP('',(#573,#574,#575,#576));
#144=EDGE_LOOP('',(#577,#578,#579,#580));
#145=EDGE_LOOP('',(#581,#582,#583,#584));
#146=EDGE_LOOP('',(#585,#586,#587,#588));
#147=EDGE_LOOP('',(#589,#590,#591,#592));
#148=EDGE_LOOP('',(#593,#594,#595,#596,#597,#598,#599,#600));
#149=EDGE_LOOP('',(#601,#602,#603,#604,#605,#606,#607,#608));
#150=EDGE_LOOP('',(#609,#610,#611,#612));
#151=EDGE_LOOP('',(#613,#614,#615,#616,#617,#618,#619,#620));
#152=EDGE_LOOP('',(#621,#622,#623,#624));
#153=EDGE_LOOP('',(#625,#626,#627,#628));
#154=EDGE_LOOP('',(#629,#630,#631,#632));
#155=EDGE_LOOP('',(#633,#634,#635,#636));
#156=EDGE_LOOP('',(#637,#638,#639,#640));
#157=EDGE_LOOP('',(#641,#642,#643,#644));
#158=EDGE_LOOP('',(#645,#646,#647,#648));
#159=EDGE_LOOP('',(#649));
#160=EDGE_LOOP('',(#650));
#161=EDGE_LOOP('',(#651));
#162=EDGE_LOOP('',(#652,#653,#654,#655));
#163=EDGE_LOOP('',(#656,#657,#658,#659));
#164=EDGE_LOOP('',(#660,#661,#662,#663));
#165=EDGE_LOOP('',(#664,#665,#666,#667));
#166=EDGE_LOOP('',(#668,#669,#670,#671));
#167=EDGE_LOOP('',(#672,#673,#674,#675));
#168=EDGE_LOOP('',(#676));
#169=EDGE_LOOP('',(#677,#678,#679,#680));
#170=EDGE_LOOP('',(#681));
#171=EDGE_LOOP('',(#682,#683,#684,#685));
#172=EDGE_LOOP('',(#686));
#173=EDGE_LOOP('',(#687,#688,#689,#690));
#174=EDGE_LOOP('',(#691,#692,#693,#694));
#175=EDGE_LOOP('',(#695));
#176=EDGE_LOOP('',(#696));
#177=LINE('',#1111,#249);
#178=LINE('',#1113,#250);
#179=LINE('',#1115,#251);
#180=LINE('',#1116,#252);
#181=LINE('',#1120,#253);
#182=LINE('',#1127,#254);
#183=LINE('',#1131,#255);
#184=LINE('',#1133,#256);
#185=LINE('',#1134,#257);
#186=LINE('',#1138,#258);
#187=LINE('',#1139,#259);
#188=LINE('',#1140,#260);
#189=LINE('',#1144,#261);
#190=LINE('',#1151,#262);
#191=LINE('',#1154,#263);
#192=LINE('',#1155,#264);
#193=LINE('',#1158,#265);
#194=LINE('',#1161,#266);
#195=LINE('',#1164,#267);
#196=LINE('',#1165,#268);
#197=LINE('',#1168,#269);
#198=LINE('',#1170,#270);
#199=LINE('',#1172,#271);
#200=LINE('',#1173,#272);
#201=LINE('',#1176,#273);
#202=LINE('',#1180,#274);
#203=LINE('',#1181,#275);
#204=LINE('',#1185,#276);
#205=LINE('',#1187,#277);
#206=LINE('',#1188,#278);
#207=LINE('',#1191,#279);
#208=LINE('',#1197,#280);
#209=LINE('',#1201,#281);
#210=LINE('',#1202,#282);
#211=LINE('',#1206,#283);
#212=LINE('',#1207,#284);
#213=LINE('',#1208,#285);
#214=LINE('',#1211,#286);
#215=LINE('',#1217,#287);
#216=LINE('',#1220,#288);
#217=LINE('',#1221,#289);
#218=LINE('',#1223,#290);
#219=LINE('',#1224,#291);
#220=LINE('',#1226,#292);
#221=LINE('',#1231,#293);
#222=LINE('',#1235,#294);
#223=LINE('',#1239,#295);
#224=LINE('',#1243,#296);
#225=LINE('',#1249,#297);
#226=LINE('',#1250,#298);
#227=LINE('',#1253,#299);
#228=LINE('',#1257,#300);
#229=LINE('',#1261,#301);
#230=LINE('',#1264,#302);
#231=LINE('',#1266,#303);
#232=LINE('',#1268,#304);
#233=LINE('',#1270,#305);
#234=LINE('',#1271,#306);
#235=LINE('',#1273,#307);
#236=LINE('',#1275,#308);
#237=LINE('',#1286,#309);
#238=LINE('',#1288,#310);
#239=LINE('',#1289,#311);
#240=LINE('',#1292,#312);
#241=LINE('',#1293,#313);
#242=LINE('',#1296,#314);
#243=LINE('',#1297,#315);
#244=LINE('',#1299,#316);
#245=LINE('',#1303,#317);
#246=LINE('',#1308,#318);
#247=LINE('',#1313,#319);
#248=LINE('',#1321,#320);
#249=VECTOR('',#875,10.);
#250=VECTOR('',#876,10.);
#251=VECTOR('',#877,10.);
#252=VECTOR('',#878,10.);
#253=VECTOR('',#881,10.);
#254=VECTOR('',#890,10.);
#255=VECTOR('',#895,10.);
#256=VECTOR('',#896,10.);
#257=VECTOR('',#897,10.);
#258=VECTOR('',#900,10.);
#259=VECTOR('',#901,10.);
#260=VECTOR('',#902,10.);
#261=VECTOR('',#905,10.);
#262=VECTOR('',#914,10.);
#263=VECTOR('',#919,10.);
#264=VECTOR('',#920,10.);
#265=VECTOR('',#923,10.);
#266=VECTOR('',#926,10.);
#267=VECTOR('',#929,10.);
#268=VECTOR('',#930,10.);
#269=VECTOR('',#931,10.);
#270=VECTOR('',#932,10.);
#271=VECTOR('',#933,10.);
#272=VECTOR('',#934,10.);
#273=VECTOR('',#937,10.);
#274=VECTOR('',#942,10.);
#275=VECTOR('',#943,10.);
#276=VECTOR('',#948,10.);
#277=VECTOR('',#949,10.);
#278=VECTOR('',#950,10.);
#279=VECTOR('',#953,10.);
#280=VECTOR('',#960,10.);
#281=VECTOR('',#965,10.);
#282=VECTOR('',#966,10.);
#283=VECTOR('',#969,10.);
#284=VECTOR('',#970,10.);
#285=VECTOR('',#971,10.);
#286=VECTOR('',#974,10.);
#287=VECTOR('',#981,10.);
#288=VECTOR('',#986,10.);
#289=VECTOR('',#987,10.);
#290=VECTOR('',#990,10.);
#291=VECTOR('',#991,10.);
#292=VECTOR('',#994,10.);
#293=VECTOR('',#999,10.);
#294=VECTOR('',#1002,10.);
#295=VECTOR('',#1005,10.);
#296=VECTOR('',#1008,10.);
#297=VECTOR('',#1015,10.);
#298=VECTOR('',#1016,10.);
#299=VECTOR('',#1019,10.);
#300=VECTOR('',#1022,10.);
#301=VECTOR('',#1025,10.);
#302=VECTOR('',#1028,10.);
#303=VECTOR('',#1031,10.);
#304=VECTOR('',#1034,10.);
#305=VECTOR('',#1037,10.);
#306=VECTOR('',#1038,10.);
#307=VECTOR('',#1041,10.);
#308=VECTOR('',#1044,10.);
#309=VECTOR('',#1057,10.);
#310=VECTOR('',#1058,10.);
#311=VECTOR('',#1059,10.);
#312=VECTOR('',#1062,10.);
#313=VECTOR('',#1063,10.);
#314=VECTOR('',#1066,10.);
#315=VECTOR('',#1067,10.);
#316=VECTOR('',#1070,10.);
#317=VECTOR('',#1075,3.);
#318=VECTOR('',#1082,3.5);
#319=VECTOR('',#1089,2.);
#320=VECTOR('',#1100,3.5);
#321=VERTEX_POINT('',#1109);
#322=VERTEX_POINT('',#1110);
#323=VERTEX_POINT('',#1112);
#324=VERTEX_POINT('',#1114);
#325=VERTEX_POINT('',#1118);
#326=VERTEX_POINT('',#1119);
#327=VERTEX_POINT('',#1124);
#328=VERTEX_POINT('',#1126);
#329=VERTEX_POINT('',#1130);
#330=VERTEX_POINT('',#1132);
#331=VERTEX_POINT('',#1136);
#332=VERTEX_POINT('',#1137);
#333=VERTEX_POINT('',#1142);
#334=VERTEX_POINT('',#1143);
#335=VERTEX_POINT('',#1148);
#336=VERTEX_POINT('',#1150);
#337=VERTEX_POINT('',#1157);
#338=VERTEX_POINT('',#1159);
#339=VERTEX_POINT('',#1163);
#340=VERTEX_POINT('',#1166);
#341=VERTEX_POINT('',#1167);
#342=VERTEX_POINT('',#1169);
#343=VERTEX_POINT('',#1171);
#344=VERTEX_POINT('',#1175);
#345=VERTEX_POINT('',#1179);
#346=VERTEX_POINT('',#1184);
#347=VERTEX_POINT('',#1186);
#348=VERTEX_POINT('',#1190);
#349=VERTEX_POINT('',#1194);
#350=VERTEX_POINT('',#1196);
#351=VERTEX_POINT('',#1200);
#352=VERTEX_POINT('',#1204);
#353=VERTEX_POINT('',#1205);
#354=VERTEX_POINT('',#1210);
#355=VERTEX_POINT('',#1214);
#356=VERTEX_POINT('',#1216);
#357=VERTEX_POINT('',#1229);
#358=VERTEX_POINT('',#1230);
#359=VERTEX_POINT('',#1232);
#360=VERTEX_POINT('',#1234);
#361=VERTEX_POINT('',#1236);
#362=VERTEX_POINT('',#1238);
#363=VERTEX_POINT('',#1240);
#364=VERTEX_POINT('',#1242);
#365=VERTEX_POINT('',#1246);
#366=VERTEX_POINT('',#1247);
#367=VERTEX_POINT('',#1252);
#368=VERTEX_POINT('',#1254);
#369=VERTEX_POINT('',#1256);
#370=VERTEX_POINT('',#1258);
#371=VERTEX_POINT('',#1260);
#372=VERTEX_POINT('',#1262);
#373=VERTEX_POINT('',#1278);
#374=VERTEX_POINT('',#1280);
#375=VERTEX_POINT('',#1282);
#376=VERTEX_POINT('',#1285);
#377=VERTEX_POINT('',#1287);
#378=VERTEX_POINT('',#1291);
#379=VERTEX_POINT('',#1295);
#380=VERTEX_POINT('',#1302);
#381=VERTEX_POINT('',#1307);
#382=VERTEX_POINT('',#1312);
#383=VERTEX_POINT('',#1318);
#384=VERTEX_POINT('',#1320);
#385=EDGE_CURVE('',#321,#322,#177,.T.);
#386=EDGE_CURVE('',#322,#323,#178,.T.);
#387=EDGE_CURVE('',#323,#324,#179,.T.);
#388=EDGE_CURVE('',#324,#321,#180,.T.);
#389=EDGE_CURVE('',#325,#326,#181,.T.);
#390=EDGE_CURVE('',#326,#324,#34,.T.);
#391=EDGE_CURVE('',#323,#325,#35,.T.);
#392=EDGE_CURVE('',#321,#327,#36,.T.);
#393=EDGE_CURVE('',#327,#328,#182,.T.);
#394=EDGE_CURVE('',#328,#322,#37,.T.);
#395=EDGE_CURVE('',#325,#329,#183,.T.);
#396=EDGE_CURVE('',#329,#330,#184,.T.);
#397=EDGE_CURVE('',#330,#326,#185,.T.);
#398=EDGE_CURVE('',#331,#332,#186,.T.);
#399=EDGE_CURVE('',#332,#328,#187,.T.);
#400=EDGE_CURVE('',#327,#331,#188,.T.);
#401=EDGE_CURVE('',#333,#334,#189,.T.);
#402=EDGE_CURVE('',#334,#330,#38,.T.);
#403=EDGE_CURVE('',#329,#333,#39,.T.);
#404=EDGE_CURVE('',#331,#335,#40,.T.);
#405=EDGE_CURVE('',#335,#336,#190,.T.);
#406=EDGE_CURVE('',#336,#332,#41,.T.);
#407=EDGE_CURVE('',#333,#336,#191,.T.);
#408=EDGE_CURVE('',#335,#334,#192,.T.);
#409=EDGE_CURVE('',#331,#337,#193,.T.);
#410=EDGE_CURVE('',#338,#337,#42,.T.);
#411=EDGE_CURVE('',#338,#335,#194,.T.);
#412=EDGE_CURVE('',#339,#327,#195,.T.);
#413=EDGE_CURVE('',#337,#339,#196,.T.);
#414=EDGE_CURVE('',#340,#341,#197,.T.);
#415=EDGE_CURVE('',#341,#342,#198,.T.);
#416=EDGE_CURVE('',#342,#343,#199,.T.);
#417=EDGE_CURVE('',#343,#340,#200,.T.);
#418=EDGE_CURVE('',#321,#344,#201,.T.);
#419=EDGE_CURVE('',#339,#344,#43,.T.);
#420=EDGE_CURVE('',#345,#324,#202,.T.);
#421=EDGE_CURVE('',#344,#345,#203,.T.);
#422=EDGE_CURVE('',#345,#346,#204,.T.);
#423=EDGE_CURVE('',#346,#347,#205,.T.);
#424=EDGE_CURVE('',#347,#344,#206,.T.);
#425=EDGE_CURVE('',#348,#339,#207,.T.);
#426=EDGE_CURVE('',#347,#348,#44,.T.);
#427=EDGE_CURVE('',#345,#349,#45,.T.);
#428=EDGE_CURVE('',#349,#350,#208,.T.);
#429=EDGE_CURVE('',#350,#346,#46,.T.);
#430=EDGE_CURVE('',#348,#351,#209,.T.);
#431=EDGE_CURVE('',#351,#337,#210,.T.);
#432=EDGE_CURVE('',#352,#353,#211,.T.);
#433=EDGE_CURVE('',#353,#350,#212,.T.);
#434=EDGE_CURVE('',#349,#352,#213,.T.);
#435=EDGE_CURVE('',#354,#338,#214,.T.);
#436=EDGE_CURVE('',#351,#354,#47,.T.);
#437=EDGE_CURVE('',#352,#355,#48,.T.);
#438=EDGE_CURVE('',#355,#356,#215,.T.);
#439=EDGE_CURVE('',#356,#353,#49,.T.);
#440=EDGE_CURVE('',#354,#356,#216,.T.);
#441=EDGE_CURVE('',#355,#338,#217,.T.);
#442=EDGE_CURVE('',#334,#355,#218,.T.);
#443=EDGE_CURVE('',#352,#330,#219,.T.);
#444=EDGE_CURVE('',#326,#349,#220,.T.);
#445=EDGE_CURVE('',#357,#358,#221,.T.);
#446=EDGE_CURVE('',#359,#358,#50,.T.);
#447=EDGE_CURVE('',#359,#360,#222,.T.);
#448=EDGE_CURVE('',#361,#360,#51,.T.);
#449=EDGE_CURVE('',#361,#362,#223,.T.);
#450=EDGE_CURVE('',#363,#362,#52,.T.);
#451=EDGE_CURVE('',#363,#364,#224,.T.);
#452=EDGE_CURVE('',#357,#364,#53,.T.);
#453=EDGE_CURVE('',#365,#366,#54,.T.);
#454=EDGE_CURVE('',#365,#363,#225,.T.);
#455=EDGE_CURVE('',#362,#366,#226,.T.);
#456=EDGE_CURVE('',#367,#366,#227,.T.);
#457=EDGE_CURVE('',#367,#368,#55,.T.);
#458=EDGE_CURVE('',#369,#368,#228,.T.);
#459=EDGE_CURVE('',#369,#370,#56,.T.);
#460=EDGE_CURVE('',#371,#370,#229,.T.);
#461=EDGE_CURVE('',#371,#372,#57,.T.);
#462=EDGE_CURVE('',#365,#372,#230,.T.);
#463=EDGE_CURVE('',#367,#361,#231,.T.);
#464=EDGE_CURVE('',#360,#368,#232,.T.);
#465=EDGE_CURVE('',#369,#359,#233,.T.);
#466=EDGE_CURVE('',#358,#370,#234,.T.);
#467=EDGE_CURVE('',#371,#357,#235,.T.);
#468=EDGE_CURVE('',#364,#372,#236,.T.);
#469=EDGE_CURVE('',#373,#373,#58,.T.);
#470=EDGE_CURVE('',#374,#374,#59,.T.);
#471=EDGE_CURVE('',#375,#375,#60,.T.);
#472=EDGE_CURVE('',#340,#376,#237,.T.);
#473=EDGE_CURVE('',#377,#376,#238,.T.);
#474=EDGE_CURVE('',#341,#377,#239,.T.);
#475=EDGE_CURVE('',#378,#377,#240,.T.);
#476=EDGE_CURVE('',#342,#378,#241,.T.);
#477=EDGE_CURVE('',#379,#378,#242,.T.);
#478=EDGE_CURVE('',#343,#379,#243,.T.);
#479=EDGE_CURVE('',#376,#379,#244,.T.);
#480=EDGE_CURVE('',#375,#380,#245,.T.);
#481=EDGE_CURVE('',#380,#380,#61,.T.);
#482=EDGE_CURVE('',#374,#381,#246,.T.);
#483=EDGE_CURVE('',#381,#381,#62,.T.);
#484=EDGE_CURVE('',#373,#382,#247,.T.);
#485=EDGE_CURVE('',#382,#382,#63,.T.);
#486=EDGE_CURVE('',#383,#383,#64,.T.);
#487=EDGE_CURVE('',#383,#384,#248,.T.);
#488=EDGE_CURVE('',#384,#384,#65,.T.);
#489=ORIENTED_EDGE('',*,*,#385,.T.);
#490=ORIENTED_EDGE('',*,*,#386,.T.);
#491=ORIENTED_EDGE('',*,*,#387,.T.);
#492=ORIENTED_EDGE('',*,*,#388,.T.);
#493=ORIENTED_EDGE('',*,*,#389,.T.);
#494=ORIENTED_EDGE('',*,*,#390,.T.);
#495=ORIENTED_EDGE('',*,*,#387,.F.);
#496=ORIENTED_EDGE('',*,*,#391,.T.);
#497=ORIENTED_EDGE('',*,*,#385,.F.);
#498=ORIENTED_EDGE('',*,*,#392,.T.);
#499=ORIENTED_EDGE('',*,*,#393,.T.);
#500=ORIENTED_EDGE('',*,*,#394,.T.);
#501=ORIENTED_EDGE('',*,*,#389,.F.);
#502=ORIENTED_EDGE('',*,*,#395,.T.);
#503=ORIENTED_EDGE('',*,*,#396,.T.);
#504=ORIENTED_EDGE('',*,*,#397,.T.);
#505=ORIENTED_EDGE('',*,*,#398,.T.);
#506=ORIENTED_EDGE('',*,*,#399,.T.);
#507=ORIENTED_EDGE('',*,*,#393,.F.);
#508=ORIENTED_EDGE('',*,*,#400,.T.);
#509=ORIENTED_EDGE('',*,*,#401,.T.);
#510=ORIENTED_EDGE('',*,*,#402,.T.);
#511=ORIENTED_EDGE('',*,*,#396,.F.);
#512=ORIENTED_EDGE('',*,*,#403,.T.);
#513=ORIENTED_EDGE('',*,*,#398,.F.);
#514=ORIENTED_EDGE('',*,*,#404,.T.);
#515=ORIENTED_EDGE('',*,*,#405,.T.);
#516=ORIENTED_EDGE('',*,*,#406,.T.);
#517=ORIENTED_EDGE('',*,*,#401,.F.);
#518=ORIENTED_EDGE('',*,*,#407,.T.);
#519=ORIENTED_EDGE('',*,*,#405,.F.);
#520=ORIENTED_EDGE('',*,*,#408,.T.);
#521=ORIENTED_EDGE('',*,*,#404,.F.);
#522=ORIENTED_EDGE('',*,*,#409,.T.);
#523=ORIENTED_EDGE('',*,*,#410,.F.);
#524=ORIENTED_EDGE('',*,*,#411,.T.);
#525=ORIENTED_EDGE('',*,*,#400,.F.);
#526=ORIENTED_EDGE('',*,*,#412,.F.);
#527=ORIENTED_EDGE('',*,*,#413,.F.);
#528=ORIENTED_EDGE('',*,*,#409,.F.);
#529=ORIENTED_EDGE('',*,*,#414,.T.);
#530=ORIENTED_EDGE('',*,*,#415,.T.);
#531=ORIENTED_EDGE('',*,*,#416,.T.);
#532=ORIENTED_EDGE('',*,*,#417,.T.);
#533=ORIENTED_EDGE('',*,*,#392,.F.);
#534=ORIENTED_EDGE('',*,*,#418,.T.);
#535=ORIENTED_EDGE('',*,*,#419,.F.);
#536=ORIENTED_EDGE('',*,*,#412,.T.);
#537=ORIENTED_EDGE('',*,*,#388,.F.);
#538=ORIENTED_EDGE('',*,*,#420,.F.);
#539=ORIENTED_EDGE('',*,*,#421,.F.);
#540=ORIENTED_EDGE('',*,*,#418,.F.);
#541=ORIENTED_EDGE('',*,*,#386,.F.);
#542=ORIENTED_EDGE('',*,*,#394,.F.);
#543=ORIENTED_EDGE('',*,*,#399,.F.);
#544=ORIENTED_EDGE('',*,*,#406,.F.);
#545=ORIENTED_EDGE('',*,*,#407,.F.);
#546=ORIENTED_EDGE('',*,*,#403,.F.);
#547=ORIENTED_EDGE('',*,*,#395,.F.);
#548=ORIENTED_EDGE('',*,*,#391,.F.);
#549=ORIENTED_EDGE('',*,*,#422,.T.);
#550=ORIENTED_EDGE('',*,*,#423,.T.);
#551=ORIENTED_EDGE('',*,*,#424,.T.);
#552=ORIENTED_EDGE('',*,*,#421,.T.);
#553=ORIENTED_EDGE('',*,*,#425,.T.);
#554=ORIENTED_EDGE('',*,*,#419,.T.);
#555=ORIENTED_EDGE('',*,*,#424,.F.);
#556=ORIENTED_EDGE('',*,*,#426,.T.);
#557=ORIENTED_EDGE('',*,*,#422,.F.);
#558=ORIENTED_EDGE('',*,*,#427,.T.);
#559=ORIENTED_EDGE('',*,*,#428,.T.);
#560=ORIENTED_EDGE('',*,*,#429,.T.);
#561=ORIENTED_EDGE('',*,*,#425,.F.);
#562=ORIENTED_EDGE('',*,*,#430,.T.);
#563=ORIENTED_EDGE('',*,*,#431,.T.);
#564=ORIENTED_EDGE('',*,*,#413,.T.);
#565=ORIENTED_EDGE('',*,*,#432,.T.);
#566=ORIENTED_EDGE('',*,*,#433,.T.);
#567=ORIENTED_EDGE('',*,*,#428,.F.);
#568=ORIENTED_EDGE('',*,*,#434,.T.);
#569=ORIENTED_EDGE('',*,*,#435,.T.);
#570=ORIENTED_EDGE('',*,*,#410,.T.);
#571=ORIENTED_EDGE('',*,*,#431,.F.);
#572=ORIENTED_EDGE('',*,*,#436,.T.);
#573=ORIENTED_EDGE('',*,*,#432,.F.);
#574=ORIENTED_EDGE('',*,*,#437,.T.);
#575=ORIENTED_EDGE('',*,*,#438,.T.);
#576=ORIENTED_EDGE('',*,*,#439,.T.);
#577=ORIENTED_EDGE('',*,*,#435,.F.);
#578=ORIENTED_EDGE('',*,*,#440,.T.);
#579=ORIENTED_EDGE('',*,*,#438,.F.);
#580=ORIENTED_EDGE('',*,*,#441,.T.);
#581=ORIENTED_EDGE('',*,*,#402,.F.);
#582=ORIENTED_EDGE('',*,*,#442,.T.);
#583=ORIENTED_EDGE('',*,*,#437,.F.);
#584=ORIENTED_EDGE('',*,*,#443,.T.);
#585=ORIENTED_EDGE('',*,*,#397,.F.);
#586=ORIENTED_EDGE('',*,*,#443,.F.);
#587=ORIENTED_EDGE('',*,*,#434,.F.);
#588=ORIENTED_EDGE('',*,*,#444,.F.);
#589=ORIENTED_EDGE('',*,*,#390,.F.);
#590=ORIENTED_EDGE('',*,*,#444,.T.);
#591=ORIENTED_EDGE('',*,*,#427,.F.);
#592=ORIENTED_EDGE('',*,*,#420,.T.);
#593=ORIENTED_EDGE('',*,*,#423,.F.);
#594=ORIENTED_EDGE('',*,*,#429,.F.);
#595=ORIENTED_EDGE('',*,*,#433,.F.);
#596=ORIENTED_EDGE('',*,*,#439,.F.);
#597=ORIENTED_EDGE('',*,*,#440,.F.);
#598=ORIENTED_EDGE('',*,*,#436,.F.);
#599=ORIENTED_EDGE('',*,*,#430,.F.);
#600=ORIENTED_EDGE('',*,*,#426,.F.);
#601=ORIENTED_EDGE('',*,*,#445,.T.);
#602=ORIENTED_EDGE('',*,*,#446,.F.);
#603=ORIENTED_EDGE('',*,*,#447,.T.);
#604=ORIENTED_EDGE('',*,*,#448,.F.);
#605=ORIENTED_EDGE('',*,*,#449,.T.);
#606=ORIENTED_EDGE('',*,*,#450,.F.);
#607=ORIENTED_EDGE('',*,*,#451,.T.);
#608=ORIENTED_EDGE('',*,*,#452,.F.);
#609=ORIENTED_EDGE('',*,*,#453,.F.);
#610=ORIENTED_EDGE('',*,*,#454,.T.);
#611=ORIENTED_EDGE('',*,*,#450,.T.);
#612=ORIENTED_EDGE('',*,*,#455,.T.);
#613=ORIENTED_EDGE('',*,*,#453,.T.);
#614=ORIENTED_EDGE('',*,*,#456,.F.);
#615=ORIENTED_EDGE('',*,*,#457,.T.);
#616=ORIENTED_EDGE('',*,*,#458,.F.);
#617=ORIENTED_EDGE('',*,*,#459,.T.);
#618=ORIENTED_EDGE('',*,*,#460,.F.);
#619=ORIENTED_EDGE('',*,*,#461,.T.);
#620=ORIENTED_EDGE('',*,*,#462,.F.);
#621=ORIENTED_EDGE('',*,*,#455,.F.);
#622=ORIENTED_EDGE('',*,*,#449,.F.);
#623=ORIENTED_EDGE('',*,*,#463,.F.);
#624=ORIENTED_EDGE('',*,*,#456,.T.);
#625=ORIENTED_EDGE('',*,*,#457,.F.);
#626=ORIENTED_EDGE('',*,*,#463,.T.);
#627=ORIENTED_EDGE('',*,*,#448,.T.);
#628=ORIENTED_EDGE('',*,*,#464,.T.);
#629=ORIENTED_EDGE('',*,*,#459,.F.);
#630=ORIENTED_EDGE('',*,*,#465,.T.);
#631=ORIENTED_EDGE('',*,*,#446,.T.);
#632=ORIENTED_EDGE('',*,*,#466,.T.);
#633=ORIENTED_EDGE('',*,*,#466,.F.);
#634=ORIENTED_EDGE('',*,*,#445,.F.);
#635=ORIENTED_EDGE('',*,*,#467,.F.);
#636=ORIENTED_EDGE('',*,*,#460,.T.);
#637=ORIENTED_EDGE('',*,*,#461,.F.);
#638=ORIENTED_EDGE('',*,*,#467,.T.);
#639=ORIENTED_EDGE('',*,*,#452,.T.);
#640=ORIENTED_EDGE('',*,*,#468,.T.);
#641=ORIENTED_EDGE('',*,*,#454,.F.);
#642=ORIENTED_EDGE('',*,*,#462,.T.);
#643=ORIENTED_EDGE('',*,*,#468,.F.);
#644=ORIENTED_EDGE('',*,*,#451,.F.);
#645=ORIENTED_EDGE('',*,*,#408,.F.);
#646=ORIENTED_EDGE('',*,*,#411,.F.);
#647=ORIENTED_EDGE('',*,*,#441,.F.);
#648=ORIENTED_EDGE('',*,*,#442,.F.);
#649=ORIENTED_EDGE('',*,*,#469,.T.);
#650=ORIENTED_EDGE('',*,*,#470,.T.);
#651=ORIENTED_EDGE('',*,*,#471,.T.);
#652=ORIENTED_EDGE('',*,*,#414,.F.);
#653=ORIENTED_EDGE('',*,*,#472,.T.);
#654=ORIENTED_EDGE('',*,*,#473,.F.);
#655=ORIENTED_EDGE('',*,*,#474,.F.);
#656=ORIENTED_EDGE('',*,*,#415,.F.);
#657=ORIENTED_EDGE('',*,*,#474,.T.);
#658=ORIENTED_EDGE('',*,*,#475,.F.);
#659=ORIENTED_EDGE('',*,*,#476,.F.);
#660=ORIENTED_EDGE('',*,*,#416,.F.);
#661=ORIENTED_EDGE('',*,*,#476,.T.);
#662=ORIENTED_EDGE('',*,*,#477,.F.);
#663=ORIENTED_EDGE('',*,*,#478,.F.);
#664=ORIENTED_EDGE('',*,*,#417,.F.);
#665=ORIENTED_EDGE('',*,*,#478,.T.);
#666=ORIENTED_EDGE('',*,*,#479,.F.);
#667=ORIENTED_EDGE('',*,*,#472,.F.);
#668=ORIENTED_EDGE('',*,*,#479,.T.);
#669=ORIENTED_EDGE('',*,*,#477,.T.);
#670=ORIENTED_EDGE('',*,*,#475,.T.);
#671=ORIENTED_EDGE('',*,*,#473,.T.);
#672=ORIENTED_EDGE('',*,*,#471,.F.);
#673=ORIENTED_EDGE('',*,*,#480,.T.);
#674=ORIENTED_EDGE('',*,*,#481,.T.);
#675=ORIENTED_EDGE('',*,*,#480,.F.);
#676=ORIENTED_EDGE('',*,*,#481,.F.);
#677=ORIENTED_EDGE('',*,*,#470,.F.);
#678=ORIENTED_EDGE('',*,*,#482,.T.);
#679=ORIENTED_EDGE('',*,*,#483,.T.);
#680=ORIENTED_EDGE('',*,*,#482,.F.);
#681=ORIENTED_EDGE('',*,*,#483,.F.);
#682=ORIENTED_EDGE('',*,*,#469,.F.);
#683=ORIENTED_EDGE('',*,*,#484,.T.);
#684=ORIENTED_EDGE('',*,*,#485,.T.);
#685=ORIENTED_EDGE('',*,*,#484,.F.);
#686=ORIENTED_EDGE('',*,*,#485,.F.);
#687=ORIENTED_EDGE('',*,*,#464,.F.);
#688=ORIENTED_EDGE('',*,*,#447,.F.);
#689=ORIENTED_EDGE('',*,*,#465,.F.);
#690=ORIENTED_EDGE('',*,*,#458,.T.);
#691=ORIENTED_EDGE('',*,*,#486,.T.);
#692=ORIENTED_EDGE('',*,*,#487,.T.);
#693=ORIENTED_EDGE('',*,*,#488,.F.);
#694=ORIENTED_EDGE('',*,*,#487,.F.);
#695=ORIENTED_EDGE('',*,*,#488,.T.);
#696=ORIENTED_EDGE('',*,*,#486,.F.);
#697=PLANE('',#790);
#698=PLANE('',#797);
#699=PLANE('',#798);
#700=PLANE('',#805);
#701=PLANE('',#808);
#702=PLANE('',#811);
#703=PLANE('',#812);
#704=PLANE('',#813);
#705=PLANE('',#819);
#706=PLANE('',#820);
#707=PLANE('',#826);
#708=PLANE('',#828);
#709=PLANE('',#830);
#710=PLANE('',#837);
#711=PLANE('',#841);
#712=PLANE('',#844);
#713=PLANE('',#846);
#714=PLANE('',#847);
#715=PLANE('',#851);
#716=PLANE('',#852);
#717=PLANE('',#853);
#718=PLANE('',#854);
#719=PLANE('',#855);
#720=PLANE('',#858);
#721=PLANE('',#861);
#722=PLANE('',#864);
#723=PLANE('',#865);
#724=PLANE('',#869);
#725=PLANE('',#870);
#726=ADVANCED_FACE('',(#74),#697,.T.);
#727=ADVANCED_FACE('',(#75),#66,.T.);
#728=ADVANCED_FACE('',(#76),#67,.T.);
#729=ADVANCED_FACE('',(#77),#698,.T.);
#730=ADVANCED_FACE('',(#78),#699,.T.);
#731=ADVANCED_FACE('',(#79),#68,.T.);
#732=ADVANCED_FACE('',(#80),#69,.T.);
#733=ADVANCED_FACE('',(#81),#700,.T.);
#734=ADVANCED_FACE('',(#82),#22,.T.);
#735=ADVANCED_FACE('',(#83,#17),#701,.T.);
#736=ADVANCED_FACE('',(#84),#23,.T.);
#737=ADVANCED_FACE('',(#85),#702,.T.);
#738=ADVANCED_FACE('',(#86),#703,.F.);
#739=ADVANCED_FACE('',(#87),#704,.T.);
#740=ADVANCED_FACE('',(#88),#70,.T.);
#741=ADVANCED_FACE('',(#89),#71,.T.);
#742=ADVANCED_FACE('',(#90),#705,.T.);
#743=ADVANCED_FACE('',(#91),#706,.T.);
#744=ADVANCED_FACE('',(#92),#72,.T.);
#745=ADVANCED_FACE('',(#93),#73,.T.);
#746=ADVANCED_FACE('',(#94),#707,.T.);
#747=ADVANCED_FACE('',(#95),#24,.T.);
#748=ADVANCED_FACE('',(#96),#708,.T.);
#749=ADVANCED_FACE('',(#97),#25,.T.);
#750=ADVANCED_FACE('',(#98,#18),#709,.T.);
#751=ADVANCED_FACE('',(#99),#26,.F.);
#752=ADVANCED_FACE('',(#100),#710,.F.);
#753=ADVANCED_FACE('',(#101),#711,.F.);
#754=ADVANCED_FACE('',(#102),#27,.F.);
#755=ADVANCED_FACE('',(#103),#28,.F.);
#756=ADVANCED_FACE('',(#104),#712,.F.);
#757=ADVANCED_FACE('',(#105),#29,.F.);
#758=ADVANCED_FACE('',(#106),#713,.F.);
#759=ADVANCED_FACE('',(#107,#19,#20,#21),#714,.T.);
#760=ADVANCED_FACE('',(#108),#715,.T.);
#761=ADVANCED_FACE('',(#109),#716,.T.);
#762=ADVANCED_FACE('',(#110),#717,.T.);
#763=ADVANCED_FACE('',(#111),#718,.T.);
#764=ADVANCED_FACE('',(#112),#719,.T.);
#765=ADVANCED_FACE('',(#113),#30,.F.);
#766=ADVANCED_FACE('',(#114),#720,.T.);
#767=ADVANCED_FACE('',(#115),#31,.F.);
#768=ADVANCED_FACE('',(#116),#721,.T.);
#769=ADVANCED_FACE('',(#117),#32,.F.);
#770=ADVANCED_FACE('',(#118),#722,.T.);
#771=ADVANCED_FACE('',(#119),#723,.F.);
#772=ADVANCED_FACE('',(#120),#33,.T.);
#773=ADVANCED_FACE('',(#121),#724,.F.);
#774=ADVANCED_FACE('',(#122),#725,.T.);
#775=CLOSED_SHELL('',(#726,#727,#728,#729,#730,#731,#732,#733,#734,#735,
#736,#737,#738,#739,#740,#741,#742,#743,#744,#745,#746,#747,#748,#749,#750,
#751,#752,#753,#754,#755,#756,#757,#758,#759,#760,#761,#762,#763,#764,#765,
#766,#767,#768,#769,#770,#771));
#776=CLOSED_SHELL('',(#772,#773,#774));
#777=DERIVED_UNIT_ELEMENT(#779,1.);
#778=DERIVED_UNIT_ELEMENT(#1330,-3.);
#779=(
MASS_UNIT()
NAMED_UNIT(*)
SI_UNIT(.KILO.,.GRAM.)
);
#780=DERIVED_UNIT((#777,#778));
#781=MEASURE_REPRESENTATION_ITEM('density measure',
POSITIVE_RATIO_MEASURE(7850.),#780);
#782=PROPERTY_DEFINITION_REPRESENTATION(#787,#784);
#783=PROPERTY_DEFINITION_REPRESENTATION(#788,#785);
#784=REPRESENTATION('material name',(#786),#1327);
#785=REPRESENTATION('density',(#781),#1327);
#786=DESCRIPTIVE_REPRESENTATION_ITEM('Steel','Steel');
#787=PROPERTY_DEFINITION('material property','material name',#1337);
#788=PROPERTY_DEFINITION('material property','density of part',#1337);
#789=AXIS2_PLACEMENT_3D('',#1107,#871,#872);
#790=AXIS2_PLACEMENT_3D('',#1108,#873,#874);
#791=AXIS2_PLACEMENT_3D('',#1117,#879,#880);
#792=AXIS2_PLACEMENT_3D('',#1121,#882,#883);
#793=AXIS2_PLACEMENT_3D('',#1122,#884,#885);
#794=AXIS2_PLACEMENT_3D('',#1123,#886,#887);
#795=AXIS2_PLACEMENT_3D('',#1125,#888,#889);
#796=AXIS2_PLACEMENT_3D('',#1128,#891,#892);
#797=AXIS2_PLACEMENT_3D('',#1129,#893,#894);
#798=AXIS2_PLACEMENT_3D('',#1135,#898,#899);
#799=AXIS2_PLACEMENT_3D('',#1141,#903,#904);
#800=AXIS2_PLACEMENT_3D('',#1145,#906,#907);
#801=AXIS2_PLACEMENT_3D('',#1146,#908,#909);
#802=AXIS2_PLACEMENT_3D('',#1147,#910,#911);
#803=AXIS2_PLACEMENT_3D('',#1149,#912,#913);
#804=AXIS2_PLACEMENT_3D('',#1152,#915,#916);
#805=AXIS2_PLACEMENT_3D('',#1153,#917,#918);
#806=AXIS2_PLACEMENT_3D('',#1156,#921,#922);
#807=AXIS2_PLACEMENT_3D('',#1160,#924,#925);
#808=AXIS2_PLACEMENT_3D('',#1162,#927,#928);
#809=AXIS2_PLACEMENT_3D('',#1174,#935,#936);
#810=AXIS2_PLACEMENT_3D('',#1177,#938,#939);
#811=AXIS2_PLACEMENT_3D('',#1178,#940,#941);
#812=AXIS2_PLACEMENT_3D('',#1182,#944,#945);
#813=AXIS2_PLACEMENT_3D('',#1183,#946,#947);
#814=AXIS2_PLACEMENT_3D('',#1189,#951,#952);
#815=AXIS2_PLACEMENT_3D('',#1192,#954,#955);
#816=AXIS2_PLACEMENT_3D('',#1193,#956,#957);
#817=AXIS2_PLACEMENT_3D('',#1195,#958,#959);
#818=AXIS2_PLACEMENT_3D('',#1198,#961,#962);
#819=AXIS2_PLACEMENT_3D('',#1199,#963,#964);
#820=AXIS2_PLACEMENT_3D('',#1203,#967,#968);
#821=AXIS2_PLACEMENT_3D('',#1209,#972,#973);
#822=AXIS2_PLACEMENT_3D('',#1212,#975,#976);
#823=AXIS2_PLACEMENT_3D('',#1213,#977,#978);
#824=AXIS2_PLACEMENT_3D('',#1215,#979,#980);
#825=AXIS2_PLACEMENT_3D('',#1218,#982,#983);
#826=AXIS2_PLACEMENT_3D('',#1219,#984,#985);
#827=AXIS2_PLACEMENT_3D('',#1222,#988,#989);
#828=AXIS2_PLACEMENT_3D('',#1225,#992,#993);
#829=AXIS2_PLACEMENT_3D('',#1227,#995,#996);
#830=AXIS2_PLACEMENT_3D('',#1228,#997,#998);
#831=AXIS2_PLACEMENT_3D('',#1233,#1000,#1001);
#832=AXIS2_PLACEMENT_3D('',#1237,#1003,#1004);
#833=AXIS2_PLACEMENT_3D('',#1241,#1006,#1007);
#834=AXIS2_PLACEMENT_3D('',#1244,#1009,#1010);
#835=AXIS2_PLACEMENT_3D('',#1245,#1011,#1012);
#836=AXIS2_PLACEMENT_3D('',#1248,#1013,#1014);
#837=AXIS2_PLACEMENT_3D('',#1251,#1017,#1018);
#838=AXIS2_PLACEMENT_3D('',#1255,#1020,#1021);
#839=AXIS2_PLACEMENT_3D('',#1259,#1023,#1024);
#840=AXIS2_PLACEMENT_3D('',#1263,#1026,#1027);
#841=AXIS2_PLACEMENT_3D('',#1265,#1029,#1030);
#842=AXIS2_PLACEMENT_3D('',#1267,#1032,#1033);
#843=AXIS2_PLACEMENT_3D('',#1269,#1035,#1036);
#844=AXIS2_PLACEMENT_3D('',#1272,#1039,#1040);
#845=AXIS2_PLACEMENT_3D('',#1274,#1042,#1043);
#846=AXIS2_PLACEMENT_3D('',#1276,#1045,#1046);
#847=AXIS2_PLACEMENT_3D('',#1277,#1047,#1048);
#848=AXIS2_PLACEMENT_3D('',#1279,#1049,#1050);
#849=AXIS2_PLACEMENT_3D('',#1281,#1051,#1052);
#850=AXIS2_PLACEMENT_3D('',#1283,#1053,#1054);
#851=AXIS2_PLACEMENT_3D('',#1284,#1055,#1056);
#852=AXIS2_PLACEMENT_3D('',#1290,#1060,#1061);
#853=AXIS2_PLACEMENT_3D('',#1294,#1064,#1065);
#854=AXIS2_PLACEMENT_3D('',#1298,#1068,#1069);
#855=AXIS2_PLACEMENT_3D('',#1300,#1071,#1072);
#856=AXIS2_PLACEMENT_3D('',#1301,#1073,#1074);
#857=AXIS2_PLACEMENT_3D('',#1304,#1076,#1077);
#858=AXIS2_PLACEMENT_3D('',#1305,#1078,#1079);
#859=AXIS2_PLACEMENT_3D('',#1306,#1080,#1081);
#860=AXIS2_PLACEMENT_3D('',#1309,#1083,#1084);
#861=AXIS2_PLACEMENT_3D('',#1310,#1085,#1086);
#862=AXIS2_PLACEMENT_3D('',#1311,#1087,#1088);
#863=AXIS2_PLACEMENT_3D('',#1314,#1090,#1091);
#864=AXIS2_PLACEMENT_3D('',#1315,#1092,#1093);
#865=AXIS2_PLACEMENT_3D('',#1316,#1094,#1095);
#866=AXIS2_PLACEMENT_3D('',#1317,#1096,#1097);
#867=AXIS2_PLACEMENT_3D('',#1319,#1098,#1099);
#868=AXIS2_PLACEMENT_3D('',#1322,#1101,#1102);
#869=AXIS2_PLACEMENT_3D('',#1323,#1103,#1104);
#870=AXIS2_PLACEMENT_3D('',#1324,#1105,#1106);
#871=DIRECTION('axis',(0.,0.,1.));
#872=DIRECTION('refdir',(1.,0.,0.));
#873=DIRECTION('center_axis',(-0.829037572555042,-0.559192903470747,0.));
#874=DIRECTION('ref_axis',(0.,0.,1.));
#875=DIRECTION('',(0.559192903470747,-0.829037572555042,0.));
#876=DIRECTION('',(0.,0.,1.));
#877=DIRECTION('',(-0.559192903470747,0.829037572555042,0.));
#878=DIRECTION('',(0.,0.,-1.));
#879=DIRECTION('center_axis',(0.,1.,0.));
#880=DIRECTION('ref_axis',(-0.707106781186548,0.,0.707106781186548));
#881=DIRECTION('',(0.,0.829037572555041,0.559192903470747));
#882=DIRECTION('center_axis',(0.,-1.,0.));
#883=DIRECTION('ref_axis',(-0.707106781186547,0.,0.707106781186547));
#884=DIRECTION('center_axis',(0.,1.,0.));
#885=DIRECTION('ref_axis',(-0.707106781186548,0.,0.707106781186548));
#886=DIRECTION('center_axis',(0.,1.,0.));
#887=DIRECTION('ref_axis',(-0.707106781186548,0.,-0.707106781186548));
#888=DIRECTION('center_axis',(0.,-1.,0.));
#889=DIRECTION('ref_axis',(-0.707106781186547,0.,-0.707106781186547));
#890=DIRECTION('',(0.,-0.829037572555041,0.559192903470747));
#891=DIRECTION('center_axis',(0.,1.,0.));
#892=DIRECTION('ref_axis',(-0.707106781186548,0.,-0.707106781186548));
#893=DIRECTION('center_axis',(0.,-0.559192903470747,0.829037572555042));
#894=DIRECTION('ref_axis',(1.,0.,0.));
#895=DIRECTION('',(1.,0.,0.));
#896=DIRECTION('',(0.,0.829037572555042,0.559192903470747));
#897=DIRECTION('',(-1.,0.,0.));
#898=DIRECTION('center_axis',(0.,-0.559192903470747,-0.829037572555042));
#899=DIRECTION('ref_axis',(-1.,0.,0.));
#900=DIRECTION('',(0.,-0.829037572555042,0.559192903470747));
#901=DIRECTION('',(-1.,0.,0.));
#902=DIRECTION('',(1.,0.,0.));
#903=DIRECTION('center_axis',(0.,1.,0.));
#904=DIRECTION('ref_axis',(0.707106781186548,0.,0.707106781186548));
#905=DIRECTION('',(0.559192903470747,0.829037572555041,0.));
#906=DIRECTION('center_axis',(0.,-1.,0.));
#907=DIRECTION('ref_axis',(0.707106781186547,0.,0.707106781186547));
#908=DIRECTION('center_axis',(0.,1.,0.));
#909=DIRECTION('ref_axis',(0.707106781186548,0.,0.707106781186548));
#910=DIRECTION('center_axis',(0.,1.,0.));
#911=DIRECTION('ref_axis',(0.707106781186548,0.,-0.707106781186548));
#912=DIRECTION('center_axis',(0.,-1.,0.));
#913=DIRECTION('ref_axis',(0.707106781186547,0.,-0.707106781186547));
#914=DIRECTION('',(-0.559192903470747,-0.829037572555041,0.));
#915=DIRECTION('center_axis',(0.,1.,0.));
#916=DIRECTION('ref_axis',(0.707106781186548,0.,-0.707106781186548));
#917=DIRECTION('center_axis',(0.829037572555042,-0.559192903470747,0.));
#918=DIRECTION('ref_axis',(0.,0.,-1.));
#919=DIRECTION('',(0.,0.,-1.));
#920=DIRECTION('',(0.,0.,1.));
#921=DIRECTION('center_axis',(0.,1.,0.));
#922=DIRECTION('ref_axis',(0.707106781186547,0.,-0.707106781186547));
#923=DIRECTION('',(0.,1.,0.));
#924=DIRECTION('center_axis',(0.,1.,0.));
#925=DIRECTION('ref_axis',(0.707106781186547,0.,-0.707106781186547));
#926=DIRECTION('',(0.,-1.,0.));
#927=DIRECTION('center_axis',(0.,0.,-1.));
#928=DIRECTION('ref_axis',(-1.,0.,0.));
#929=DIRECTION('',(0.,-1.,0.));
#930=DIRECTION('',(-1.,0.,0.));
#931=DIRECTION('',(0.,-1.,0.));
#932=DIRECTION('',(1.,0.,0.));
#933=DIRECTION('',(0.,1.,0.));
#934=DIRECTION('',(-1.,0.,0.));
#935=DIRECTION('center_axis',(0.,1.,0.));
#936=DIRECTION('ref_axis',(-0.707106781186547,0.,-0.707106781186547));
#937=DIRECTION('',(0.,1.,0.));
#938=DIRECTION('center_axis',(0.,1.,0.));
#939=DIRECTION('ref_axis',(-0.707106781186547,0.,-0.707106781186547));
#940=DIRECTION('center_axis',(-1.,0.,0.));
#941=DIRECTION('ref_axis',(0.,0.,1.));
#942=DIRECTION('',(0.,-1.,0.));
#943=DIRECTION('',(0.,0.,1.));
#944=DIRECTION('center_axis',(0.,1.,0.));
#945=DIRECTION('ref_axis',(1.,0.,0.));
#946=DIRECTION('center_axis',(-0.829037572555042,0.559192903470747,0.));
#947=DIRECTION('ref_axis',(0.,0.,1.));
#948=DIRECTION('',(0.559192903470747,0.829037572555042,0.));
#949=DIRECTION('',(0.,0.,-1.));
#950=DIRECTION('',(-0.559192903470747,-0.829037572555042,0.));
#951=DIRECTION('center_axis',(0.,-1.,0.));
#952=DIRECTION('ref_axis',(-0.707106781186548,0.,-0.707106781186548));
#953=DIRECTION('',(0.,-0.829037572555041,-0.559192903470748));
#954=DIRECTION('center_axis',(0.,-1.,0.));
#955=DIRECTION('ref_axis',(-0.707106781186548,0.,-0.707106781186548));
#956=DIRECTION('center_axis',(0.,-1.,0.));
#957=DIRECTION('ref_axis',(-0.707106781186548,0.,0.707106781186548));
#958=DIRECTION('center_axis',(0.,1.,0.));
#959=DIRECTION('ref_axis',(-0.707106781186547,0.,0.707106781186547));
#960=DIRECTION('',(0.,0.829037572555041,-0.559192903470748));
#961=DIRECTION('center_axis',(0.,-1.,0.));
#962=DIRECTION('ref_axis',(-0.707106781186548,0.,0.707106781186548));
#963=DIRECTION('center_axis',(0.,0.559192903470747,-0.829037572555042));
#964=DIRECTION('ref_axis',(-1.,0.,0.));
#965=DIRECTION('',(1.,0.,0.));
#966=DIRECTION('',(0.,-0.829037572555042,-0.559192903470747));
#967=DIRECTION('center_axis',(0.,0.559192903470747,0.829037572555042));
#968=DIRECTION('ref_axis',(1.,0.,0.));
#969=DIRECTION('',(0.,0.829037572555042,-0.559192903470747));
#970=DIRECTION('',(-1.,0.,0.));
#971=DIRECTION('',(1.,0.,0.));
#972=DIRECTION('center_axis',(0.,-1.,0.));
#973=DIRECTION('ref_axis',(0.707106781186548,0.,-0.707106781186548));
#974=DIRECTION('',(0.559192903470748,-0.829037572555041,0.));
#975=DIRECTION('center_axis',(0.,-1.,0.));
#976=DIRECTION('ref_axis',(0.707106781186548,0.,-0.707106781186548));
#977=DIRECTION('center_axis',(0.,-1.,0.));
#978=DIRECTION('ref_axis',(0.707106781186548,0.,0.707106781186548));
#979=DIRECTION('center_axis',(0.,1.,0.));
#980=DIRECTION('ref_axis',(0.707106781186547,0.,0.707106781186547));
#981=DIRECTION('',(-0.559192903470748,0.829037572555041,0.));
#982=DIRECTION('center_axis',(0.,-1.,0.));
#983=DIRECTION('ref_axis',(0.707106781186548,0.,0.707106781186548));
#984=DIRECTION('center_axis',(0.829037572555042,0.559192903470747,0.));
#985=DIRECTION('ref_axis',(0.,0.,-1.));
#986=DIRECTION('',(0.,0.,1.));
#987=DIRECTION('',(0.,0.,-1.));
#988=DIRECTION('center_axis',(0.,1.,0.));
#989=DIRECTION('ref_axis',(0.707106781186547,0.,0.707106781186547));
#990=DIRECTION('',(0.,1.,0.));
#991=DIRECTION('',(0.,-1.,0.));
#992=DIRECTION('center_axis',(0.,0.,1.));
#993=DIRECTION('ref_axis',(1.,0.,0.));
#994=DIRECTION('',(0.,1.,0.));
#995=DIRECTION('center_axis',(0.,1.,0.));
#996=DIRECTION('ref_axis',(-0.707106781186547,0.,0.707106781186547));
#997=DIRECTION('center_axis',(0.,1.,0.));
#998=DIRECTION('ref_axis',(0.,0.,1.));
#999=DIRECTION('',(0.,0.,-1.));
#1000=DIRECTION('center_axis',(0.,1.,0.));
#1001=DIRECTION('ref_axis',(-0.707106781186546,0.,-0.707106781186549));
#1002=DIRECTION('',(1.,0.,0.));
#1003=DIRECTION('center_axis',(0.,1.,0.));
#1004=DIRECTION('ref_axis',(0.707106781186546,0.,-0.707106781186549));
#1005=DIRECTION('',(0.,0.,1.));
#1006=DIRECTION('center_axis',(0.,1.,0.));
#1007=DIRECTION('ref_axis',(0.707106781186546,0.,0.707106781186549));
#1008=DIRECTION('',(-1.,0.,0.));
#1009=DIRECTION('center_axis',(0.,1.,0.));
#1010=DIRECTION('ref_axis',(-0.707106781186546,0.,0.707106781186549));
#1011=DIRECTION('center_axis',(0.,-1.,0.));
#1012=DIRECTION('ref_axis',(0.707106781186546,0.,0.707106781186549));
#1013=DIRECTION('center_axis',(0.,1.,0.));
#1014=DIRECTION('ref_axis',(0.707106781186546,0.,0.707106781186549));
#1015=DIRECTION('',(0.,1.,0.));
#1016=DIRECTION('',(0.,-1.,0.));
#1017=DIRECTION('center_axis',(0.,-1.,0.));
#1018=DIRECTION('ref_axis',(0.,0.,-1.));
#1019=DIRECTION('',(0.,0.,1.));
#1020=DIRECTION('center_axis',(0.,1.,0.));
#1021=DIRECTION('ref_axis',(0.707106781186546,0.,-0.707106781186549));
#1022=DIRECTION('',(1.,0.,0.));
#1023=DIRECTION('center_axis',(0.,1.,0.));
#1024=DIRECTION('ref_axis',(-0.707106781186546,0.,-0.707106781186549));
#1025=DIRECTION('',(0.,0.,-1.));
#1026=DIRECTION('center_axis',(0.,1.,0.));
#1027=DIRECTION('ref_axis',(-0.707106781186546,0.,0.707106781186549));
#1028=DIRECTION('',(-1.,0.,0.));
#1029=DIRECTION('center_axis',(1.,0.,0.));
#1030=DIRECTION('ref_axis',(0.,0.,1.));
#1031=DIRECTION('',(0.,1.,0.));
#1032=DIRECTION('center_axis',(0.,-1.,0.));
#1033=DIRECTION('ref_axis',(0.707106781186546,0.,-0.707106781186549));
#1034=DIRECTION('',(0.,-1.,0.));
#1035=DIRECTION('center_axis',(0.,-1.,0.));
#1036=DIRECTION('ref_axis',(-0.707106781186546,0.,-0.707106781186549));
#1037=DIRECTION('',(0.,1.,0.));
#1038=DIRECTION('',(0.,-1.,0.));
#1039=DIRECTION('center_axis',(-1.,0.,0.));
#1040=DIRECTION('ref_axis',(0.,0.,-1.));
#1041=DIRECTION('',(0.,1.,0.));
#1042=DIRECTION('center_axis',(0.,-1.,0.));
#1043=DIRECTION('ref_axis',(-0.707106781186546,0.,0.707106781186549));
#1044=DIRECTION('',(0.,-1.,0.));
#1045=DIRECTION('center_axis',(0.,0.,1.));
#1046=DIRECTION('ref_axis',(-1.,0.,0.));
#1047=DIRECTION('center_axis',(1.,0.,0.));
#1048=DIRECTION('ref_axis',(0.,0.,-1.));
#1049=DIRECTION('center_axis',(-1.,0.,0.));
#1050=DIRECTION('ref_axis',(0.,0.,-1.));
#1051=DIRECTION('center_axis',(-1.,0.,0.));
#1052=DIRECTION('ref_axis',(0.,0.,-1.));
#1053=DIRECTION('center_axis',(-1.,0.,0.));
#1054=DIRECTION('ref_axis',(0.,0.,-1.));
#1055=DIRECTION('center_axis',(-1.,0.,0.));
#1056=DIRECTION('ref_axis',(0.,1.,0.));
#1057=DIRECTION('',(0.,0.,-1.));
#1058=DIRECTION('',(0.,1.,0.));
#1059=DIRECTION('',(0.,0.,-1.));
#1060=DIRECTION('center_axis',(0.,-1.,0.));
#1061=DIRECTION('ref_axis',(-1.,0.,0.));
#1062=DIRECTION('',(-1.,0.,0.));
#1063=DIRECTION('',(0.,0.,-1.));
#1064=DIRECTION('center_axis',(1.,0.,0.));
#1065=DIRECTION('ref_axis',(0.,-1.,0.));
#1066=DIRECTION('',(0.,-1.,0.));
#1067=DIRECTION('',(0.,0.,-1.));
#1068=DIRECTION('center_axis',(0.,1.,0.));
#1069=DIRECTION('ref_axis',(1.,0.,0.));
#1070=DIRECTION('',(1.,0.,0.));
#1071=DIRECTION('center_axis',(0.,0.,-1.));
#1072=DIRECTION('ref_axis',(-1.,0.,0.));
#1073=DIRECTION('center_axis',(-1.,0.,0.));
#1074=DIRECTION('ref_axis',(0.,0.,-1.));
#1075=DIRECTION('',(-1.,0.,0.));
#1076=DIRECTION('center_axis',(-1.,0.,0.));
#1077=DIRECTION('ref_axis',(0.,0.,-1.));
#1078=DIRECTION('center_axis',(1.,0.,0.));
#1079=DIRECTION('ref_axis',(0.,0.,-1.));
#1080=DIRECTION('center_axis',(-1.,0.,0.));
#1081=DIRECTION('ref_axis',(0.,0.,-1.));
#1082=DIRECTION('',(-1.,0.,0.));
#1083=DIRECTION('center_axis',(-1.,0.,0.));
#1084=DIRECTION('ref_axis',(0.,0.,-1.));
#1085=DIRECTION('center_axis',(1.,0.,0.));
#1086=DIRECTION('ref_axis',(0.,0.,-1.));
#1087=DIRECTION('center_axis',(-1.,0.,0.));
#1088=DIRECTION('ref_axis',(0.,0.,-1.));
#1089=DIRECTION('',(-1.,0.,0.));
#1090=DIRECTION('center_axis',(-1.,0.,0.));
#1091=DIRECTION('ref_axis',(0.,0.,-1.));
#1092=DIRECTION('center_axis',(1.,0.,0.));
#1093=DIRECTION('ref_axis',(0.,0.,-1.));
#1094=DIRECTION('center_axis',(0.,0.,-1.));
#1095=DIRECTION('ref_axis',(1.,0.,0.));
#1096=DIRECTION('center_axis',(1.,0.,0.));
#1097=DIRECTION('ref_axis',(0.,0.,-1.));
#1098=DIRECTION('center_axis',(-1.,0.,0.));
#1099=DIRECTION('ref_axis',(0.,0.,-1.));
#1100=DIRECTION('',(-1.,0.,0.));
#1101=DIRECTION('center_axis',(-1.,0.,0.));
#1102=DIRECTION('ref_axis',(0.,0.,-1.));
#1103=DIRECTION('center_axis',(1.,0.,0.));
#1104=DIRECTION('ref_axis',(0.,0.,-1.));
#1105=DIRECTION('center_axis',(1.,0.,0.));
#1106=DIRECTION('ref_axis',(0.,0.,-1.));
#1107=CARTESIAN_POINT('',(0.,0.,0.));
#1108=CARTESIAN_POINT('Origin',(-79.575,2.44622559804602,-20.335));
#1109=CARTESIAN_POINT('',(-81.225,4.89245119609204,-30.67));
#1110=CARTESIAN_POINT('',(-77.925,0.,-30.67));
#1111=CARTESIAN_POINT('',(-81.225,4.89245119609204,-30.67));
#1112=CARTESIAN_POINT('',(-77.925,0.,30.67));
#1113=CARTESIAN_POINT('',(-77.925,0.,-20.335));
#1114=CARTESIAN_POINT('',(-81.225,4.89245119609204,30.67));
#1115=CARTESIAN_POINT('',(-77.925,0.,30.67));
#1116=CARTESIAN_POINT('',(-81.225,4.89245119609204,-20.335));
#1117=CARTESIAN_POINT('Origin',(-71.225,2.44622559804602,30.67));
#1118=CARTESIAN_POINT('',(-71.225,0.,37.37));
#1119=CARTESIAN_POINT('',(-71.225,4.89245119609204,40.67));
#1120=CARTESIAN_POINT('',(-71.225,0.,37.37));
#1121=CARTESIAN_POINT('Origin',(-71.225,4.89245119609204,30.67));
#1122=CARTESIAN_POINT('Origin',(-71.225,0.,30.67));
#1123=CARTESIAN_POINT('Origin',(-71.225,2.44622559804602,-30.67));
#1124=CARTESIAN_POINT('',(-71.225,4.89245119609204,-40.67));
#1125=CARTESIAN_POINT('Origin',(-71.225,4.89245119609204,-30.67));
#1126=CARTESIAN_POINT('',(-71.225,0.,-37.37));
#1127=CARTESIAN_POINT('',(-71.225,4.89245119609204,-40.67));
#1128=CARTESIAN_POINT('Origin',(-71.225,0.,-30.67));
#1129=CARTESIAN_POINT('Origin',(-40.6125,2.44622559804602,39.02));
#1130=CARTESIAN_POINT('',(71.225,0.,37.37));
#1131=CARTESIAN_POINT('',(-40.6125,0.,37.37));
#1132=CARTESIAN_POINT('',(71.225,4.89245119609204,40.67));
#1133=CARTESIAN_POINT('',(71.225,0.,37.37));
#1134=CARTESIAN_POINT('',(-40.6125,4.89245119609204,40.67));
#1135=CARTESIAN_POINT('Origin',(40.6125,2.44622559804602,-39.02));
#1136=CARTESIAN_POINT('',(71.225,4.89245119609204,-40.67));
#1137=CARTESIAN_POINT('',(71.225,0.,-37.37));
#1138=CARTESIAN_POINT('',(71.225,4.89245119609204,-40.67));
#1139=CARTESIAN_POINT('',(40.6125,0.,-37.37));
#1140=CARTESIAN_POINT('',(40.6125,4.89245119609204,-40.67));
#1141=CARTESIAN_POINT('Origin',(71.225,2.44622559804602,30.67));
#1142=CARTESIAN_POINT('',(77.925,0.,30.67));
#1143=CARTESIAN_POINT('',(81.225,4.89245119609204,30.67));
#1144=CARTESIAN_POINT('',(77.925,0.,30.67));
#1145=CARTESIAN_POINT('Origin',(71.225,4.89245119609204,30.67));
#1146=CARTESIAN_POINT('Origin',(71.225,0.,30.67));
#1147=CARTESIAN_POINT('Origin',(71.225,2.44622559804602,-30.67));
#1148=CARTESIAN_POINT('',(81.225,4.89245119609204,-30.67));
#1149=CARTESIAN_POINT('Origin',(71.225,4.89245119609204,-30.67));
#1150=CARTESIAN_POINT('',(77.925,0.,-30.67));
#1151=CARTESIAN_POINT('',(81.225,4.89245119609204,-30.67));
#1152=CARTESIAN_POINT('Origin',(71.225,0.,-30.67));
#1153=CARTESIAN_POINT('Origin',(79.575,2.44622559804602,20.335));
#1154=CARTESIAN_POINT('',(77.925,0.,20.335));
#1155=CARTESIAN_POINT('',(81.225,4.89245119609204,20.335));
#1156=CARTESIAN_POINT('Origin',(71.225,0.,-30.67));
#1157=CARTESIAN_POINT('',(71.225,19.607548803908,-40.67));
#1158=CARTESIAN_POINT('',(71.225,0.,-40.67));
#1159=CARTESIAN_POINT('',(81.225,19.607548803908,-30.67));
#1160=CARTESIAN_POINT('Origin',(71.225,19.607548803908,-30.67));
#1161=CARTESIAN_POINT('',(81.225,0.,-30.67));
#1162=CARTESIAN_POINT('Origin',(81.225,0.,-40.67));
#1163=CARTESIAN_POINT('',(-71.225,19.607548803908,-40.67));
#1164=CARTESIAN_POINT('',(-71.225,0.,-40.67));
#1165=CARTESIAN_POINT('',(40.6125,19.607548803908,-40.67));
#1166=CARTESIAN_POINT('',(16.725,16.,-40.67));
#1167=CARTESIAN_POINT('',(16.725,8.5,-40.67));
#1168=CARTESIAN_POINT('',(16.725,4.25,-40.67));
#1169=CARTESIAN_POINT('',(26.725,8.5,-40.67));
#1170=CARTESIAN_POINT('',(53.975,8.5,-40.67));
#1171=CARTESIAN_POINT('',(26.725,16.,-40.67));
#1172=CARTESIAN_POINT('',(26.725,8.,-40.67));
#1173=CARTESIAN_POINT('',(48.975,16.,-40.67));
#1174=CARTESIAN_POINT('Origin',(-71.225,0.,-30.67));
#1175=CARTESIAN_POINT('',(-81.225,19.607548803908,-30.67));
#1176=CARTESIAN_POINT('',(-81.225,0.,-30.67));
#1177=CARTESIAN_POINT('Origin',(-71.225,19.607548803908,-30.67));
#1178=CARTESIAN_POINT('Origin',(-81.225,0.,-40.67));
#1179=CARTESIAN_POINT('',(-81.225,19.607548803908,30.67));
#1180=CARTESIAN_POINT('',(-81.225,0.,30.67));
#1181=CARTESIAN_POINT('',(-81.225,19.607548803908,-20.335));
#1182=CARTESIAN_POINT('Origin',(0.,0.,0.));
#1183=CARTESIAN_POINT('Origin',(-79.575,22.053774401954,-20.335));
#1184=CARTESIAN_POINT('',(-77.925,24.5,30.67));
#1185=CARTESIAN_POINT('',(-81.225,19.607548803908,30.67));
#1186=CARTESIAN_POINT('',(-77.925,24.5,-30.67));
#1187=CARTESIAN_POINT('',(-77.925,24.5,-20.335));
#1188=CARTESIAN_POINT('',(-77.925,24.5,-30.67));
#1189=CARTESIAN_POINT('Origin',(-71.225,22.053774401954,-30.67));
#1190=CARTESIAN_POINT('',(-71.225,24.5,-37.37));
#1191=CARTESIAN_POINT('',(-71.225,24.5,-37.37));
#1192=CARTESIAN_POINT('Origin',(-71.225,24.5,-30.67));
#1193=CARTESIAN_POINT('Origin',(-71.225,22.053774401954,30.67));
#1194=CARTESIAN_POINT('',(-71.225,19.607548803908,40.67));
#1195=CARTESIAN_POINT('Origin',(-71.225,19.607548803908,30.67));
#1196=CARTESIAN_POINT('',(-71.225,24.5,37.37));
#1197=CARTESIAN_POINT('',(-71.225,19.607548803908,40.67));
#1198=CARTESIAN_POINT('Origin',(-71.225,24.5,30.67));
#1199=CARTESIAN_POINT('Origin',(40.6125,22.053774401954,-39.02));
#1200=CARTESIAN_POINT('',(71.225,24.5,-37.37));
#1201=CARTESIAN_POINT('',(40.6125,24.5,-37.37));
#1202=CARTESIAN_POINT('',(71.225,24.5,-37.37));
#1203=CARTESIAN_POINT('Origin',(-40.6125,22.053774401954,39.02));
#1204=CARTESIAN_POINT('',(71.225,19.607548803908,40.67));
#1205=CARTESIAN_POINT('',(71.225,24.5,37.37));
#1206=CARTESIAN_POINT('',(71.225,19.607548803908,40.67));
#1207=CARTESIAN_POINT('',(-40.6125,24.5,37.37));
#1208=CARTESIAN_POINT('',(-40.6125,19.607548803908,40.67));
#1209=CARTESIAN_POINT('Origin',(71.225,22.053774401954,-30.67));
#1210=CARTESIAN_POINT('',(77.925,24.5,-30.67));
#1211=CARTESIAN_POINT('',(77.925,24.5,-30.67));
#1212=CARTESIAN_POINT('Origin',(71.225,24.5,-30.67));
#1213=CARTESIAN_POINT('Origin',(71.225,22.053774401954,30.67));
#1214=CARTESIAN_POINT('',(81.225,19.607548803908,30.67));
#1215=CARTESIAN_POINT('Origin',(71.225,19.607548803908,30.67));
#1216=CARTESIAN_POINT('',(77.925,24.5,30.67));
#1217=CARTESIAN_POINT('',(81.225,19.607548803908,30.67));
#1218=CARTESIAN_POINT('Origin',(71.225,24.5,30.67));
#1219=CARTESIAN_POINT('Origin',(79.575,22.053774401954,20.335));
#1220=CARTESIAN_POINT('',(77.925,24.5,20.335));
#1221=CARTESIAN_POINT('',(81.225,19.607548803908,20.335));
#1222=CARTESIAN_POINT('Origin',(71.225,0.,30.67));
#1223=CARTESIAN_POINT('',(81.225,0.,30.67));
#1224=CARTESIAN_POINT('',(71.225,0.,40.67));
#1225=CARTESIAN_POINT('Origin',(-81.225,0.,40.67));
#1226=CARTESIAN_POINT('',(-71.225,0.,40.67));
#1227=CARTESIAN_POINT('Origin',(-71.225,0.,30.67));
#1228=CARTESIAN_POINT('Origin',(0.,24.5,0.));
#1229=CARTESIAN_POINT('',(-46.685,24.5,26.));
#1230=CARTESIAN_POINT('',(-46.685,24.5,-26.));
#1231=CARTESIAN_POINT('',(-46.685,24.5,14.));
#1232=CARTESIAN_POINT('',(-44.685,24.5,-28.));
#1233=CARTESIAN_POINT('Origin',(-44.685,24.5,-26.));
#1234=CARTESIAN_POINT('',(44.685,24.5,-28.));
#1235=CARTESIAN_POINT('',(-23.3425,24.5,-28.));
#1236=CARTESIAN_POINT('',(46.685,24.5,-26.));
#1237=CARTESIAN_POINT('Origin',(44.685,24.5,-26.));
#1238=CARTESIAN_POINT('',(46.685,24.5,26.));
#1239=CARTESIAN_POINT('',(46.685,24.5,-14.));
#1240=CARTESIAN_POINT('',(44.685,24.5,28.));
#1241=CARTESIAN_POINT('Origin',(44.685,24.5,26.));
#1242=CARTESIAN_POINT('',(-44.685,24.5,28.));
#1243=CARTESIAN_POINT('',(23.3425,24.5,28.));
#1244=CARTESIAN_POINT('Origin',(-44.685,24.5,26.));
#1245=CARTESIAN_POINT('Origin',(44.685,24.5,26.));
#1246=CARTESIAN_POINT('',(44.685,21.83,28.));
#1247=CARTESIAN_POINT('',(46.685,21.83,26.));
#1248=CARTESIAN_POINT('Origin',(44.685,21.83,26.));
#1249=CARTESIAN_POINT('',(44.685,24.5,28.));
#1250=CARTESIAN_POINT('',(46.685,24.5,26.));
#1251=CARTESIAN_POINT('Origin',(0.,21.83,0.));
#1252=CARTESIAN_POINT('',(46.685,21.83,-26.));
#1253=CARTESIAN_POINT('',(46.685,21.83,-28.));
#1254=CARTESIAN_POINT('',(44.685,21.83,-28.));
#1255=CARTESIAN_POINT('Origin',(44.685,21.83,-26.));
#1256=CARTESIAN_POINT('',(-44.685,21.83,-28.));
#1257=CARTESIAN_POINT('',(-46.685,21.83,-28.));
#1258=CARTESIAN_POINT('',(-46.685,21.83,-26.));
#1259=CARTESIAN_POINT('Origin',(-44.685,21.83,-26.));
#1260=CARTESIAN_POINT('',(-46.685,21.83,26.));
#1261=CARTESIAN_POINT('',(-46.685,21.83,28.));
#1262=CARTESIAN_POINT('',(-44.685,21.83,28.));
#1263=CARTESIAN_POINT('Origin',(-44.685,21.83,26.));
#1264=CARTESIAN_POINT('',(46.685,21.83,28.));
#1265=CARTESIAN_POINT('Origin',(46.685,24.5,-28.));
#1266=CARTESIAN_POINT('',(46.685,24.5,-26.));
#1267=CARTESIAN_POINT('Origin',(44.685,24.5,-26.));
#1268=CARTESIAN_POINT('',(44.685,24.5,-28.));
#1269=CARTESIAN_POINT('Origin',(-44.685,24.5,-26.));
#1270=CARTESIAN_POINT('',(-44.685,24.5,-28.));
#1271=CARTESIAN_POINT('',(-46.685,24.5,-26.));
#1272=CARTESIAN_POINT('Origin',(-46.685,24.5,28.));
#1273=CARTESIAN_POINT('',(-46.685,24.5,26.));
#1274=CARTESIAN_POINT('Origin',(-44.685,24.5,26.));
#1275=CARTESIAN_POINT('',(-44.685,24.5,28.));
#1276=CARTESIAN_POINT('Origin',(46.685,24.5,28.));
#1277=CARTESIAN_POINT('Origin',(81.225,0.,40.67));
#1278=CARTESIAN_POINT('',(81.225,12.25,-20.));
#1279=CARTESIAN_POINT('Origin',(81.225,12.25,-22.));
#1280=CARTESIAN_POINT('',(81.225,12.25,3.5));
#1281=CARTESIAN_POINT('Origin',(81.225,12.25,0.));
#1282=CARTESIAN_POINT('',(81.225,12.25,23.));
#1283=CARTESIAN_POINT('Origin',(81.225,12.25,20.));
#1284=CARTESIAN_POINT('Origin',(16.725,8.5,-40.67));
#1285=CARTESIAN_POINT('',(16.725,16.,-41.67));
#1286=CARTESIAN_POINT('',(16.725,16.,-40.67));
#1287=CARTESIAN_POINT('',(16.725,8.5,-41.67));
#1288=CARTESIAN_POINT('',(16.725,16.,-41.67));
#1289=CARTESIAN_POINT('',(16.725,8.5,-40.67));
#1290=CARTESIAN_POINT('Origin',(26.725,8.5,-40.67));
#1291=CARTESIAN_POINT('',(26.725,8.5,-41.67));
#1292=CARTESIAN_POINT('',(16.725,8.5,-41.67));
#1293=CARTESIAN_POINT('',(26.725,8.5,-40.67));
#1294=CARTESIAN_POINT('Origin',(26.725,16.,-40.67));
#1295=CARTESIAN_POINT('',(26.725,16.,-41.67));
#1296=CARTESIAN_POINT('',(26.725,8.5,-41.67));
#1297=CARTESIAN_POINT('',(26.725,16.,-40.67));
#1298=CARTESIAN_POINT('Origin',(16.725,16.,-40.67));
#1299=CARTESIAN_POINT('',(26.725,16.,-41.67));
#1300=CARTESIAN_POINT('Origin',(21.725,12.25,-41.67));
#1301=CARTESIAN_POINT('Origin',(81.225,12.25,20.));
#1302=CARTESIAN_POINT('',(79.225,12.25,23.));
#1303=CARTESIAN_POINT('',(81.225,12.25,23.));
#1304=CARTESIAN_POINT('Origin',(79.225,12.25,20.));
#1305=CARTESIAN_POINT('Origin',(79.225,12.25,20.));
#1306=CARTESIAN_POINT('Origin',(81.225,12.25,0.));
#1307=CARTESIAN_POINT('',(79.225,12.25,3.5));
#1308=CARTESIAN_POINT('',(81.225,12.25,3.5));
#1309=CARTESIAN_POINT('Origin',(79.225,12.25,0.));
#1310=CARTESIAN_POINT('Origin',(79.225,12.25,0.));
#1311=CARTESIAN_POINT('Origin',(81.225,12.25,-22.));
#1312=CARTESIAN_POINT('',(79.225,12.25,-20.));
#1313=CARTESIAN_POINT('',(81.225,12.25,-20.));
#1314=CARTESIAN_POINT('Origin',(79.225,12.25,-22.));
#1315=CARTESIAN_POINT('Origin',(79.225,12.25,-22.));
#1316=CARTESIAN_POINT('Origin',(-46.685,24.5,-28.));
#1317=CARTESIAN_POINT('Origin',(79.225,12.25,0.));
#1318=CARTESIAN_POINT('',(81.225,12.25,3.5));
#1319=CARTESIAN_POINT('Origin',(81.225,12.25,0.));
#1320=CARTESIAN_POINT('',(79.225,12.25,3.5));
#1321=CARTESIAN_POINT('',(79.225,12.25,3.5));
#1322=CARTESIAN_POINT('Origin',(79.225,12.25,0.));
#1323=CARTESIAN_POINT('Origin',(79.225,12.25,0.));
#1324=CARTESIAN_POINT('Origin',(81.225,12.25,0.));
#1325=UNCERTAINTY_MEASURE_WITH_UNIT(LENGTH_MEASURE(0.01),#1329,
'DISTANCE_ACCURACY_VALUE',
'Maximum model space distance between geometric entities at asserted c
onnectivities');
#1326=UNCERTAINTY_MEASURE_WITH_UNIT(LENGTH_MEASURE(0.01),#1329,
'DISTANCE_ACCURACY_VALUE',
'Maximum model space distance between geometric entities at asserted c
onnectivities');
#1327=(
GEOMETRIC_REPRESENTATION_CONTEXT(3)
GLOBAL_UNCERTAINTY_ASSIGNED_CONTEXT((#1325))
GLOBAL_UNIT_ASSIGNED_CONTEXT((#1329,#1331,#1332))
REPRESENTATION_CONTEXT('','3D')
);
#1328=(
GEOMETRIC_REPRESENTATION_CONTEXT(3)
GLOBAL_UNCERTAINTY_ASSIGNED_CONTEXT((#1326))
GLOBAL_UNIT_ASSIGNED_CONTEXT((#1329,#1331,#1332))
REPRESENTATION_CONTEXT('','3D')
);
#1329=(
LENGTH_UNIT()
NAMED_UNIT(*)
SI_UNIT(.MILLI.,.METRE.)
);
#1330=(
LENGTH_UNIT()
NAMED_UNIT(*)
SI_UNIT($,.METRE.)
);
#1331=(
NAMED_UNIT(*)
PLANE_ANGLE_UNIT()
SI_UNIT($,.RADIAN.)
);
#1332=(
NAMED_UNIT(*)
SI_UNIT($,.STERADIAN.)
SOLID_ANGLE_UNIT()
);
#1333=SHAPE_DEFINITION_REPRESENTATION(#1334,#1335);
#1334=PRODUCT_DEFINITION_SHAPE('',$,#1337);
#1335=SHAPE_REPRESENTATION('',(#789),#1327);
#1336=PRODUCT_DEFINITION_CONTEXT('part definition',#1341,'design');
#1337=PRODUCT_DEFINITION('2026-09-23-10-17-10-470','UPRtek MK350S',#1338,
#1336);
#1338=PRODUCT_DEFINITION_FORMATION('',$,#1343);
#1339=PRODUCT_RELATED_PRODUCT_CATEGORY('UPRtek MK350S','UPRtek MK350S',
(#1343));
#1340=APPLICATION_PROTOCOL_DEFINITION('international standard',
'automotive_design',2009,#1341);
#1341=APPLICATION_CONTEXT(
'Core Data for Automotive Mechanical Design Process');
#1342=PRODUCT_CONTEXT('part definition',#1341,'mechanical');
#1343=PRODUCT('2026-09-23-10-17-10-470','UPRtek MK350S',$,(#1342));
#1344=PRESENTATION_STYLE_ASSIGNMENT((#1347));
#1345=PRESENTATION_STYLE_ASSIGNMENT((#1348));
#1346=PRESENTATION_STYLE_ASSIGNMENT((#1349));
#1347=SURFACE_STYLE_USAGE(.BOTH.,#1350);
#1348=SURFACE_STYLE_USAGE(.BOTH.,#1351);
#1349=SURFACE_STYLE_USAGE(.BOTH.,#1352);
#1350=SURFACE_SIDE_STYLE('',(#1353));
#1351=SURFACE_SIDE_STYLE('',(#1354));
#1352=SURFACE_SIDE_STYLE('',(#1355));
#1353=SURFACE_STYLE_FILL_AREA(#1356);
#1354=SURFACE_STYLE_FILL_AREA(#1357);
#1355=SURFACE_STYLE_FILL_AREA(#1358);
#1356=FILL_AREA_STYLE('Steel - Satin',(#1359));
#1357=FILL_AREA_STYLE('ABS (White)',(#1360));
#1358=FILL_AREA_STYLE('Acetal Resin (White)',(#1361));
#1359=FILL_AREA_STYLE_COLOUR('Steel - Satin',#1362);
#1360=FILL_AREA_STYLE_COLOUR('ABS (White)',#1363);
#1361=FILL_AREA_STYLE_COLOUR('Acetal Resin (White)',#1364);
#1362=COLOUR_RGB('Steel - Satin',0.627450980392157,0.627450980392157,0.627450980392157);
#1363=COLOUR_RGB('ABS (White)',0.117647058823529,0.117647058823529,0.117647058823529);
#1364=COLOUR_RGB('Acetal Resin (White)',0.972549019607843,0.968627450980392,
0.929411764705882);
ENDSEC;
END-ISO-10303-21;
